<?xml version="1.0" encoding="UTF-8"?>
<svg version="1.1" xmlns="http://www.w3.org/2000/svg" width="611" height="512">
<path d="M0 0 C2.5249292 -0.29683568 4.80559375 -0.3957301 7.33302307 -0.36749268 C8.09765065 -0.37076152 8.86227822 -0.37403036 9.65007633 -0.37739825 C12.22598183 -0.38471243 14.80132603 -0.37049032 17.37719727 -0.35644531 C19.21821184 -0.35723571 21.05922626 -0.35933149 22.90023804 -0.36264038 C27.91043664 -0.36778757 32.92043089 -0.35421323 37.93059659 -0.33711338 C43.16319369 -0.32211484 48.39578772 -0.32325231 53.62840271 -0.32244873 C62.41595973 -0.31875266 71.20343879 -0.30376753 79.9909668 -0.28125 C91.28604645 -0.25236682 102.58106331 -0.24202667 113.87617588 -0.2375679 C123.56727647 -0.23359365 133.2583633 -0.22109095 142.94945407 -0.20722103 C146.07422336 -0.20311473 149.19899216 -0.20019283 152.32376289 -0.19742584 C157.2246641 -0.19254585 162.12552688 -0.18236455 167.02640915 -0.16798782 C168.8304389 -0.16345092 170.63447383 -0.16062289 172.43850899 -0.15958023 C174.89036526 -0.15784458 177.34212413 -0.1499885 179.79396057 -0.14044189 C180.51729082 -0.14130838 181.24062107 -0.14217486 181.98587042 -0.1430676 C186.88579269 -0.11420731 186.88579269 -0.11420731 188 1 C188.04080783 2.99958364 188.04254356 5.00045254 188 7 C187.01 7.33 186.02 7.66 185 8 C185 8.99 185 9.98 185 11 C184.34 11.33 183.68 11.66 183 12 C182.67 12.99 182.34 13.98 182 15 C181.34 15 180.68 15 180 15 C179.71125 15.5775 179.4225 16.155 179.125 16.75 C178.08333333 18.83333333 177.04166667 20.91666667 176 23 C175.34 23 174.68 23 174 23 C173.61328125 23.82757813 173.61328125 23.82757813 173.21875 24.671875 C171.82036875 27.34314175 170.21236695 29.76851909 168.5 32.25 C167.8915625 33.14203125 167.283125 34.0340625 166.65625 34.953125 C166.1096875 35.62859375 165.563125 36.3040625 165 37 C164.34 37 163.68 37 163 37 C162.6596875 38.1446875 162.6596875 38.1446875 162.3125 39.3125 C160.60349078 42.81189983 159.59005827 43.43940882 156 45 C152.29110468 45.43055756 148.60561557 45.3786237 144.87573242 45.34057617 C143.75334167 45.34101425 142.63095093 45.34145233 141.47454834 45.34190369 C137.76801098 45.33981518 134.06192701 45.31648039 130.35546875 45.29296875 C127.78428901 45.28737304 125.21310608 45.28310282 122.641922 45.28010559 C116.56816438 45.26982507 110.49459362 45.24618556 104.42090636 45.21605712 C97.50437909 45.18249447 90.58784394 45.16602244 83.67125547 45.15097082 C69.44741648 45.11963532 55.22371401 45.0668865 41 45 C41.00276538 45.94367778 41.00553076 46.88735556 41.00837994 47.85962963 C41.07494869 70.81066586 41.12426307 93.76168959 41.15543652 116.71280193 C41.17091206 127.81174333 41.19201475 138.91062099 41.22631836 150.00952148 C41.25619962 159.68217934 41.27557 169.35479104 41.28226548 179.02749377 C41.28617989 184.15015393 41.29539364 189.27268204 41.31719017 194.39529991 C41.33753516 199.21578119 41.3438378 204.03607586 41.33932304 208.85659599 C41.34014913 210.62670658 41.3461266 212.39682333 41.35761642 214.16689682 C41.37252957 216.58261968 41.36895813 218.99763686 41.36076355 221.41337585 C41.36950207 222.11474613 41.3782406 222.81611641 41.38724393 223.53874034 C41.32595541 230.21741498 38.28983231 233.79807224 34.1875 238.75 C30.88767511 242.79729903 27.97504865 246.94531251 25.2265625 251.3828125 C24.82179688 251.91648437 24.41703125 252.45015625 24 253 C23.34 253 22.68 253 22 253 C21.67 253.99 21.34 254.98 21 256 C20.34 256 19.68 256 19 256 C18.67 257.65 18.34 259.3 18 261 C17.34 261 16.68 261 16 261 C15.73316406 261.57621094 15.46632813 262.15242188 15.19140625 262.74609375 C13.57275071 265.80827161 11.47323706 268.38005744 9.33984375 271.09765625 C7.81914723 273.0629958 7.81914723 273.0629958 7 276 C4.26752652 277.36623674 2.01801098 277.128426 -1 277 C-2.58250756 275.41749244 -2.12676396 273.81856624 -2.12863445 271.62178993 C-2.1318589 270.67068199 -2.13508335 269.71957404 -2.1384055 268.73964465 C-2.1368569 267.68237496 -2.1353083 266.62510528 -2.13371277 265.53579712 C-2.13597833 264.4222496 -2.13824388 263.30870208 -2.14057809 262.16141069 C-2.14695061 258.39877521 -2.14608665 254.63617546 -2.14526367 250.87353516 C-2.14825315 248.18863284 -2.15162647 245.50373341 -2.15544128 242.8188324 C-2.16376451 236.26400849 -2.16649689 229.70919358 -2.16705366 223.15436484 C-2.16752807 217.82832541 -2.16957904 212.50228895 -2.17275429 207.17625046 C-2.18156572 192.09020883 -2.18617294 177.00417433 -2.18542381 161.91813011 C-2.18538386 161.1040339 -2.1853439 160.28993768 -2.18530273 159.45117188 C-2.18526185 158.63608648 -2.18522097 157.82100108 -2.18517885 156.98121612 C-2.18477233 143.76894733 -2.19434219 130.55670704 -2.2084411 117.3444465 C-2.22278922 103.79215959 -2.22971214 90.2398866 -2.22884732 76.68759191 C-2.22851479 69.07341966 -2.23128629 61.45927727 -2.24202538 53.84511185 C-2.25110989 47.36227394 -2.25332261 40.87947943 -2.24651595 34.39663793 C-2.24324021 31.08693864 -2.24430862 27.77734044 -2.2518692 24.46764565 C-2.25952703 20.88441147 -2.25498568 17.30139918 -2.24723816 13.71817017 C-2.25238172 12.66536193 -2.25752529 11.61255368 -2.26282471 10.52784216 C-2.25822592 9.57151873 -2.25362712 8.61519529 -2.24888897 7.62989235 C-2.24910634 6.80226438 -2.24932371 5.97463641 -2.24954766 5.12192881 C-2 3 -2 3 0 0 Z " fill="#000000" transform="translate(297,162)"/>
<path d="M0 0 C1.08499538 0.00129972 1.08499538 0.00129972 2.19190985 0.0026257 C2.95497743 -0.00034542 3.71804502 -0.00331654 4.50423586 -0.0063777 C7.08072583 -0.01510236 9.65716955 -0.0165761 12.23367316 -0.01806521 C14.07291775 -0.02269068 15.91216137 -0.02771497 17.75140387 -0.03311038 C22.76164936 -0.04626145 27.77188144 -0.05268445 32.78214151 -0.05712104 C35.90839816 -0.06004704 39.0346511 -0.06415091 42.1609059 -0.06862521 C51.93086691 -0.08230647 61.7008195 -0.09197039 71.47078943 -0.0958271 C82.77016342 -0.10031138 94.06941665 -0.1178738 105.36875391 -0.1468277 C114.08890554 -0.16840136 122.8090231 -0.17852905 131.52920115 -0.17986822 C136.74396056 -0.18091924 141.95860655 -0.18688979 147.173338 -0.20468783 C152.07591217 -0.22109441 156.97828677 -0.22336036 161.88087851 -0.21454883 C163.68449631 -0.21377449 165.48812452 -0.21817295 167.29171568 -0.22800708 C169.74566828 -0.24060707 172.19890115 -0.23491588 174.65284735 -0.22442508 C175.37394688 -0.23248148 176.09504641 -0.24053789 176.83799744 -0.24883842 C178.82211977 -0.2288692 178.82211977 -0.2288692 181.98587042 0.1430676 C184.11404135 3.33532399 184.23572011 4.11503479 184.23475939 7.77295995 C184.23935819 8.72928339 184.24395698 9.68560683 184.24869514 10.67090976 C184.24097979 12.25012212 184.24097979 12.25012212 184.23310858 13.86123776 C184.235523 14.97790527 184.23793741 16.09457277 184.24042499 17.24507868 C184.24608406 21.00621818 184.23738217 24.7671895 184.22879034 28.5283215 C184.22986267 31.21676695 184.23172018 33.90520129 184.23454291 36.59364438 C184.23958919 43.14887735 184.23393816 49.70405995 184.22469261 56.25928666 C184.21432061 63.88657775 184.21437846 71.51385788 184.21486519 79.14115469 C184.21536603 92.74499309 184.20619773 106.34880799 184.19168097 119.95263791 C184.17758755 133.16650945 184.17051041 146.38036031 184.17117316 159.59423947 C184.17121311 160.40833569 184.17125307 161.22243191 184.17129423 162.06119771 C184.17133459 162.87385891 184.17137494 163.68652011 184.17141652 164.52380741 C184.17210556 179.55016983 184.16622164 194.57652342 184.15726331 209.60288299 C184.15424151 214.92543774 184.15318311 220.24799088 184.152731 225.57054639 C184.15205034 232.05119092 184.14760613 238.53182059 184.13839819 245.01245882 C184.13376723 248.32189542 184.13126854 251.63130901 184.1319924 254.94074941 C184.13247924 258.52014487 184.12686559 262.09947791 184.11958319 265.67886472 C184.12113179 266.7361344 184.12268039 267.79340409 184.12427592 268.88271224 C184.11943925 270.30937416 184.11943925 270.30937416 184.11450487 271.76485753 C184.11380045 272.59216079 184.11309602 273.41946406 184.11237025 274.27183712 C183.98587042 276.1430676 183.98587042 276.1430676 182.98587042 277.1430676 C180.29837042 277.7055676 180.29837042 277.7055676 176.98587042 277.1430676 C174.56473572 274.74379416 172.66417735 272.10688623 170.98587042 269.1430676 C170.98587042 268.4830676 170.98587042 267.8230676 170.98587042 267.1430676 C170.32587042 267.1430676 169.66587042 267.1430676 168.98587042 267.1430676 C167.47805792 265.2446301 167.47805792 265.2446301 165.86087042 262.7680676 C165.3220423 261.95595822 164.78321417 261.14384885 164.22805792 260.3071301 C162.98587042 258.1430676 162.98587042 258.1430676 162.98587042 256.1430676 C162.32587042 256.1430676 161.66587042 256.1430676 160.98587042 256.1430676 C157.98587042 252.68152914 157.98587042 252.68152914 157.98587042 250.1430676 C157.32587042 250.1430676 156.66587042 250.1430676 155.98587042 250.1430676 C154.95151486 248.49750193 153.95823529 246.82600679 152.98587042 245.1430676 C152.26399542 244.2561926 151.54212042 243.3693176 150.79837042 242.4555676 C148.98587042 240.1430676 148.98587042 240.1430676 148.98587042 238.1430676 C148.32587042 238.1430676 147.66587042 238.1430676 146.98587042 238.1430676 C145.73196417 236.71728635 145.73196417 236.71728635 144.42337042 234.8305676 C143.98895636 234.21568479 143.5545423 233.60080197 143.10696417 232.96728635 C140.69236202 229.03829957 140.84720391 225.28048963 140.8656159 220.83491635 C140.86433427 219.71013632 140.86433427 219.71013632 140.86302674 218.56263345 C140.86137594 216.04295265 140.8668868 213.523338 140.87234503 211.0036633 C140.87262701 209.20028807 140.87246895 207.39691273 140.87190253 205.59353757 C140.87161499 200.690969 140.8775047 195.78842477 140.88447648 190.88586187 C140.89071725 185.76490789 140.89131439 180.64395339 140.89250189 175.52299619 C140.89561306 165.82265725 140.90382359 156.12232956 140.91385138 146.42199558 C140.92501914 135.37981598 140.93052464 124.33763584 140.93554682 113.295452 C140.94600636 90.5779843 140.96360169 67.86052658 140.98587042 45.1430676 C140.39264644 45.14675477 139.79942246 45.15044194 139.18822199 45.15424085 C124.74933186 45.24260386 110.31046588 45.30878298 95.87136561 45.35031629 C88.88868311 45.37093575 81.90618117 45.39904424 74.92361456 45.44482541 C68.18684088 45.48897396 61.45029367 45.51219603 54.71336943 45.52257657 C52.14129881 45.52997553 49.56923862 45.54442368 46.99724776 45.56598783 C43.39858313 45.59496377 39.80069711 45.59902587 36.20193487 45.59716916 C35.13522558 45.61155026 34.06851629 45.62593137 32.96948248 45.64074826 C25.74897599 45.60035506 25.74897599 45.60035506 21.83564764 43.25531125 C19.97841912 41.13455903 19.28347233 39.92068538 18.98587042 37.1430676 C18.32587042 37.1430676 17.66587042 37.1430676 16.98587042 37.1430676 C15.35447105 35.21719181 13.84863817 33.29980043 12.36087042 31.2680676 C11.94063605 30.71248166 11.52040167 30.15689572 11.08743292 29.58447385 C7.98587042 25.40542048 7.98587042 25.40542048 7.98587042 23.1430676 C7.32587042 23.1430676 6.66587042 23.1430676 5.98587042 23.1430676 C4.75151981 21.3759666 3.59660627 19.55287192 2.48587042 17.7055676 C0.36345745 13.76469994 0.36345745 13.76469994 -3.01412958 11.1430676 C-3.01412958 10.1530676 -3.01412958 9.1630676 -3.01412958 8.1430676 C-3.67412958 8.1430676 -4.33412958 8.1430676 -5.01412958 8.1430676 C-5.39476178 5.8169819 -5.72682903 3.48251496 -6.01412958 1.1430676 C-4.32993753 -0.54112445 -2.24873018 0.0132449 0 0 Z " fill="#000000" transform="translate(96.01412957906723,161.8569324016571)"/>
<path d="M0 0 C0.72545997 0.00234117 1.45091994 0.00468233 2.19836354 0.00709444 C2.96573944 0.005641 3.73311534 0.00418756 4.52374506 0.00269008 C7.12816395 -0.00099655 9.73252528 0.00252873 12.33694386 0.00595194 C14.2097539 0.00480117 16.08256371 0.00321395 17.95537305 0.0012247 C23.12750366 -0.00297471 28.29961598 -0.0008752 33.47174668 0.00221092 C39.03962703 0.00446233 44.6075041 0.0009867 50.17538381 -0.00176901 C61.09304624 -0.00622849 72.01070181 -0.00524945 82.92836452 -0.00235637 C91.79704112 -0.00010303 100.66571579 0.00021049 109.5343926 -0.00088018 C111.42377728 -0.00111003 111.42377728 -0.00111003 113.35133135 -0.00134452 C115.90972209 -0.00166423 118.46811283 -0.00198844 121.02650356 -0.00231712 C144.36211895 -0.00509094 167.6977303 -0.00220859 191.03334484 0.00302548 C212.35476136 0.0077714 233.67617192 0.00734679 254.9975884 0.00256449 C278.92954075 -0.00278534 302.86148981 -0.00489773 326.79344296 -0.00182325 C329.34271296 -0.00150468 331.89198295 -0.00119031 334.44125295 -0.00088018 C335.69572331 -0.00072591 336.95019367 -0.00057163 338.24267828 -0.00041268 C347.106356 0.00045274 355.97003161 -0.00101094 364.833709 -0.00335974 C375.62744864 -0.00615696 386.421181 -0.00542113 397.21491981 -0.00007899 C402.72783012 0.00255908 408.24072827 0.00356131 413.75363851 0.00027186 C418.79174421 -0.00268894 423.82982639 -0.00110194 428.86792994 0.00424941 C430.69899567 0.00537453 432.53006336 0.00478035 434.36112785 0.00237362 C436.83320826 -0.00062857 439.30520605 0.00241223 441.777282 0.00709444 C442.86547195 0.00358269 442.86547195 0.00358269 443.97564554 0 C448.87367243 0.01878524 448.87367243 0.01878524 449.98782277 1.13293558 C450.12897438 3.80352409 450.03029384 6.45725796 449.98782277 9.13293558 C449.32782277 9.13293558 448.66782277 9.13293558 447.98782277 9.13293558 C447.65782277 10.45293558 447.32782277 11.77293558 446.98782277 13.13293558 C446.32782277 13.13293558 445.66782277 13.13293558 444.98782277 13.13293558 C444.65782277 14.45293558 444.32782277 15.77293558 443.98782277 17.13293558 C443.32782277 17.13293558 442.66782277 17.13293558 441.98782277 17.13293558 C441.58563527 18.27762308 441.58563527 18.27762308 441.17532277 19.44543558 C440.02178636 22.05607062 439.00152412 23.20678647 436.98782277 25.13293558 C436.65782277 26.12293558 436.32782277 27.11293558 435.98782277 28.13293558 C435.32782277 28.13293558 434.66782277 28.13293558 433.98782277 28.13293558 C433.65782277 29.12293558 433.32782277 30.11293558 432.98782277 31.13293558 C429.68782277 31.13293558 426.38782277 31.13293558 422.98782277 31.13293558 C422.98782277 31.79293558 422.98782277 32.45293558 422.98782277 33.13293558 C422.48453954 32.97060435 421.9812563 32.80827311 421.46272206 32.64102274 C418.10478446 31.95165127 414.80144879 31.99385973 411.3894341 32.00354105 C410.62967778 32.00178873 409.86992146 32.00003641 409.08714223 31.99823099 C406.58135612 31.99383721 404.07564082 31.99674088 401.56985402 32.00012308 C399.82918718 31.99944954 398.08852042 31.9984791 396.3478539 31.99722391 C392.70382723 31.99575047 389.0598251 31.99789094 385.41580129 32.00256449 C380.73468673 32.00827429 376.05362935 32.00497265 371.37251687 31.99899203 C367.78072097 31.99538771 364.18893876 31.99652418 360.59714246 31.99911982 C358.87028616 31.99978879 357.14342863 31.9989617 355.41657376 31.99664026 C353.01035801 31.99411449 350.60423654 31.99795265 348.19802785 32.00354105 C347.4785497 32.00151682 346.75907155 31.99949259 346.01779103 31.99740702 C342.72043059 31.72611372 342.72043059 31.72611372 339.98782277 33.13293558 C338.27846231 33.23203595 336.56497176 33.26033237 334.85274148 33.26157004 C333.73279725 33.26479448 332.61285302 33.26801893 331.45897108 33.27134109 C330.21309129 33.26979248 328.9672115 33.26824388 327.68357778 33.26664835 C326.37205289 33.26891391 325.060528 33.27117947 323.70925993 33.27351367 C320.05178995 33.27966221 316.39434272 33.27949451 312.73686874 33.2783193 C308.7987625 33.27811605 304.86066373 33.28362686 300.92256093 33.28837687 C293.19965233 33.29670139 285.47675135 33.29943255 277.75383864 33.29998925 C271.4772148 33.30046369 265.2005935 33.30251483 258.92397046 33.30568987 C241.14158716 33.31450243 223.35920991 33.31910847 205.5768244 33.3183594 C204.61715357 33.31831944 203.65748274 33.31827948 202.66873097 33.31823832 C201.70789238 33.31819744 200.74705379 33.31815656 199.75709888 33.31811444 C184.18980974 33.3177081 168.6225448 33.32727285 153.05526266 33.34137668 C137.08360504 33.35573301 121.11195921 33.36264723 105.14029497 33.36178291 C96.16842793 33.36145061 87.19658625 33.3642117 78.22472501 33.37496096 C70.58402044 33.38405633 62.9433527 33.38624926 55.30264506 33.37945154 C51.40323092 33.37618105 47.50388749 33.37614856 43.60448003 33.38480479 C39.37859487 33.39408927 35.15287421 33.38790728 30.92698598 33.38017374 C29.6922598 33.38531731 28.45753361 33.39046087 27.18539149 33.3957603 C26.05240852 33.3911615 24.91942555 33.38656271 23.75210977 33.38182455 C22.77677059 33.38204192 21.80143141 33.38225929 20.79653651 33.38248324 C17.62457295 33.10066168 14.96297175 32.24246822 11.98782277 31.13293558 C11.98782277 30.14293558 11.98782277 29.15293558 11.98782277 28.13293558 C10.99782277 27.80293558 10.00782277 27.47293558 8.98782277 27.13293558 C7.32585378 25.18392532 5.80335775 23.25941185 4.30032277 21.19543558 C3.88460011 20.64436136 3.46887746 20.09328715 3.04055715 19.52551371 C-0.01217723 15.40006151 -0.01217723 15.40006151 -0.01217723 13.13293558 C-0.67217723 13.13293558 -1.33217723 13.13293558 -2.01217723 13.13293558 C-2.34217723 11.81293558 -2.67217723 10.49293558 -3.01217723 9.13293558 C-3.67217723 9.13293558 -4.33217723 9.13293558 -5.01217723 9.13293558 C-7.01217723 6.13293558 -7.01217723 6.13293558 -6.69967723 3.50793558 C-5.5092657 -0.60439515 -4.02727802 0.01544569 0 0 Z " fill="#000000" transform="translate(65.01217722892761,117.86706441640854)"/>
</svg>
